<?xml version="1.0" encoding="UTF-8" standalone="no"?>
<!-- Created with Inkscape (http://www.inkscape.org/) -->

<svg
   width="210mm"
   height="297mm"
   viewBox="0 0 210 297"
   version="1.1"
   id="svg5"
   xmlns="http://www.w3.org/2000/svg"
   xmlns:svg="http://www.w3.org/2000/svg">
  <defs
     id="defs2" />
  <g
     id="layer1">
    <path
       style="fill:#000000;fill-opacity:1;fill-rule:nonzero;stroke:none;stroke-width:0.264583"
       id="path42"
       d="m -161.79072,80.088189 c -0.22533,-3.56652 -0.39956,-7.139329 -0.47333,-10.712532 0.0415,-3.174312 0.52372,-6.410055 2.06485,-9.23144 0.26277,-0.481054 0.58485,-0.92725 0.87728,-1.390877 1.19105,-1.358905 2.93474,-3.105399 4.65847,-3.740555 0.39014,-0.143756 -1.37225,0.818206 -0.95686,0.800153 0.8824,-0.03835 1.65879,-0.610055 2.50371,-0.867381 0.82264,-0.250539 1.66351,-0.436732 2.49527,-0.655098 3.86348,-0.89404 7.82139,-1.216236 11.77788,-1.152538 2.23917,0.08924 3.32324,0.417603 4.88179,1.998139 1.15468,1.37101 1.67279,3.097434 2.20881,4.773205 0.5617,1.911437 0.73809,3.904474 0.96507,5.875856 0.21304,2.08072 0.26074,4.173106 0.28862,6.262989 0.052,1.751838 0.0271,3.496582 -0.21104,5.23403 -0.20801,1.833946 -0.68899,3.617306 -1.17051,5.393531 -0.57237,1.961718 -1.1952,3.909086 -1.87643,5.835859 -0.80132,2.169623 -1.86644,4.226353 -2.95184,6.264216 -1.17061,2.215899 -2.49661,4.340569 -3.80826,6.474214 -1.46512,2.23127 -2.91444,4.4731 -4.41842,6.67847 -1.27182,1.76666 -2.26066,3.69084 -3.18557,5.6535 -0.91044,1.90791 -1.59836,3.90883 -2.16931,5.94142 -0.45128,1.89807 -0.95505,3.77133 -1.20626,5.70924 -0.19625,1.86103 -0.38322,3.72174 -0.48612,5.59059 -0.0758,1.66091 -0.0855,3.32363 -0.1,4.98589 -0.0631,1.18314 0.2375,2.33829 0.5487,3.46953 0.20764,0.5735 0.37046,1.16059 0.52734,1.74938 0,0 3.46055,-1.87993 3.46055,-1.87993 v 0 c -0.16119,-0.58781 -0.32729,-1.17411 -0.52212,-1.7519 -0.29108,-1.10266 -0.58038,-2.21837 -0.51287,-3.36955 -0.002,-1.65306 0.01,-3.3068 0.0909,-4.9582 0.10765,-1.85971 0.28789,-3.71198 0.49855,-5.56274 0.26976,-1.91558 0.76039,-3.77757 1.22175,-5.65413 0.58657,-2.01077 1.27079,-3.99351 2.1888,-5.88016 0.92739,-1.94549 1.95069,-3.8362 3.20331,-5.59588 1.49256,-2.20655 2.92518,-4.45309 4.38459,-6.681563 1.33108,-2.137061 2.65343,-4.27854 3.82401,-6.509493 1.08457,-2.056318 2.14408,-4.133845 2.93906,-6.322833 0.67138,-1.938755 1.3122,-3.889462 1.87048,-5.864071 0.48573,-1.793325 0.95075,-3.597712 1.16192,-5.448282 0.21487,-1.75378 0.22493,-3.514873 0.17498,-5.279853 -0.0439,-2.100622 -0.10949,-4.202477 -0.30978,-6.295024 -0.23094,-1.995064 -0.42862,-4.008681 -1.00199,-5.941611 -0.55029,-1.735981 -1.101,-3.514314 -2.28045,-4.94293 -1.62882,-1.669753 -2.73313,-2.123656 -5.11008,-2.210252 -4.00514,-0.05604 -8.01245,0.255566 -11.92855,1.138283 -1.26659,0.320698 -3.84311,0.911203 -5.03311,1.463746 -1.87641,0.871262 -3.68181,1.889456 -5.49162,2.891771 -1.8143,1.004809 -3.40426,2.259158 -4.64841,3.929349 -0.28473,0.477337 -0.59931,0.938088 -0.85419,1.432015 -1.48713,2.881995 -1.92266,6.156192 -1.94041,9.359709 0.0629,3.604612 0.24521,7.206075 0.33217,10.810359 0,0 3.49866,-1.816621 3.49866,-1.816621 z" />
    <path
       style="fill:#000000;fill-opacity:1;fill-rule:nonzero;stroke:none;stroke-width:0.264583"
       id="path44"
       d="m -145.40853,161.10068 c -1.92021,-0.94447 -3.69826,-1.22624 -5.81702,-1.25881 -3.24481,0.15742 -6.49635,1.54185 -8.77163,3.90843 -1.50454,1.7162 -2.17911,3.82504 -2.6333,6.01606 -0.42391,1.9814 -0.25111,3.94417 0.39073,5.84769 0.71725,1.75539 2.21536,2.85263 3.77108,3.82382 1.82079,1.06262 3.7768,1.81026 5.82389,2.28876 1.93236,0.42442 3.1738,0.48413 4.98024,-0.35675 3.79206,-2.13128 4.56106,-2.09524 5.57844,-5.66164 0.36786,-1.48328 0.42166,-3.01462 0.45744,-4.53472 0.0747,-1.39813 0.0255,-2.76817 -0.32818,-4.12537 -0.35391,-1.38136 -0.85372,-2.7235 -1.47215,-4.00715 -0.55444,-1.06617 -1.22621,-2.05598 -2.21791,-2.7505 0,0 -3.32897,2.13485 -3.32897,2.13485 v 0 c 0.98089,0.59771 1.59941,1.55325 2.12936,2.55394 0.60246,1.26429 1.09672,2.57928 1.43263,3.94066 0.33148,1.32562 0.33556,2.66585 0.28366,4.02638 -0.0416,1.49056 -0.10388,2.99346 -0.50079,4.4401 -0.22115,0.70422 -0.43906,1.43048 -0.83575,2.062 -0.79031,1.25814 -3.31868,2.43025 1.86805,-0.53404 -1.7674,0.97523 -2.86744,0.99929 -4.84389,0.59218 -2.02172,-0.43578 -3.95455,-1.14776 -5.75378,-2.17981 -1.48465,-0.90832 -2.92825,-1.93753 -3.61101,-3.6049 -0.62347,-1.8411 -0.75419,-3.73274 -0.32792,-5.644 0.47909,-2.14365 1.19457,-4.19783 2.75197,-5.81466 1.24615,-1.08844 1.51008,-1.23733 -1.91736,0.86196 -0.27109,0.16604 0.57012,-0.28404 0.86797,-0.39511 0.97803,-0.36469 2.02086,-0.54701 3.05953,-0.60344 0.6994,-0.005 1.48294,-0.0333 2.1795,0.0574 1.20458,0.15688 2.37777,0.56287 3.47234,1.07578 0,0 3.31283,-2.15915 3.31283,-2.15915 z" />
    <path
       style="fill:#ff0000;stroke-width:0.264583"
       id="path116"
       d="m -96.969047,50.265996 c -0.609992,3.093784 -1.09764,6.205019 -1.529789,9.328113 -0.595807,3.788243 -1.052348,7.592057 -1.340207,11.415604 -0.243997,3.181384 -0.210877,6.373106 -0.316637,9.559435 -0.17801,3.791601 -0.21498,7.586993 -0.24495,11.381962 -0.0328,4.529961 -0.0389,9.06005 -0.0385,13.59011 -0.004,4.22023 -0.10737,8.44345 -0.33173,12.65797 -0.10408,3.37793 -0.57845,6.71648 -1.13358,10.04414 -0.6544,3.58139 -1.44098,7.12803 -1.87461,10.74595 -0.33771,2.49658 -0.57016,5.00427 -0.68706,7.52043 -0.10635,1.64614 -0.0534,3.28534 0.0997,4.92516 0.22741,1.3357 0.31053,2.67695 0.76867,3.95826 0.0726,0.1859 0.14512,0.3718 0.21768,0.55771 0,0 3.441214,-1.91881 3.441214,-1.91881 v 0 c -0.07161,-0.18126 -0.143224,-0.36252 -0.214834,-0.54378 -0.43702,-1.25181 -0.51117,-2.57159 -0.72344,-3.87445 -0.16623,-1.61703 -0.20315,-3.23379 -0.1081,-4.85827 0.10601,-2.49718 0.32055,-4.9873 0.64344,-7.46624 0.433541,-3.60852 1.20205,-7.151 1.865982,-10.72152 0.567473,-3.3398 1.031767,-6.69218 1.115232,-10.08519 0.189881,-4.21407 0.261163,-8.43579 0.282181,-12.65364 0.0031,-4.528872 -0.0019,-9.057863 0.04003,-13.586591 0.04927,-3.803314 0.133477,-7.606051 0.311142,-11.405835 0.10488,-3.177363 0.0715,-6.359798 0.299164,-9.532872 0.282906,-3.813275 0.757753,-7.604624 1.333513,-11.384703 0.44831,-3.145205 0.943121,-6.282348 1.691511,-9.372777 0,0 -3.566044,1.719834 -3.566044,1.719834 z" />
    <path
       style="fill:#ff0000;stroke-width:0.264583"
       id="path118"
       d="m -99.742618,169.28197 c -1.747932,-0.0622 -3.427722,0.26861 -5.047892,0.90217 -2.25352,1.14762 -4.67096,2.20267 -6.37346,4.12106 -0.42038,0.47369 -0.65765,0.84229 -1.02291,1.36087 -1.01716,1.883 -1.36197,4.02301 -1.62312,6.12164 -0.26521,1.91263 -0.16962,3.81296 0.42253,5.65116 0.80702,2.03953 1.8853,2.96616 3.78716,3.96642 2.38306,0.95242 4.94588,1.37716 7.49511,1.55929 1.74481,0.0451 3.451514,-0.25629 5.027306,-1.00228 1.303737,-0.80208 2.646834,-1.54346 3.911214,-2.40625 0.219816,-0.15 0.351591,-0.4002 0.512305,-0.61231 0.672623,-0.88774 1.068882,-1.86441 1.399614,-2.9174 0.448857,-1.69241 0.489201,-3.44069 0.311491,-5.17192 -0.122457,-1.62441 -0.714026,-3.09268 -1.61294,-4.43082 -0.787889,-1.34237 -1.896104,-2.34494 -3.15278,-3.23151 -0.539173,-0.38028 -1.132562,-0.65561 -1.73586,-0.91344 0,0 -3.27555,2.19317 -3.27555,2.19317 v 0 c 0.59354,0.22454 1.175989,0.46855 1.704206,0.82834 1.278808,0.87907 2.266217,1.76057 3.073212,3.10968 0.863449,1.28423 1.427893,2.69049 1.53585,4.25152 0.150958,1.6888 0.08371,3.39322 -0.393879,5.0314 -0.267589,0.76806 -0.552392,1.48314 -1.009423,2.16306 -0.886566,1.31893 -3.136543,2.5969 1.797608,-0.34622 -0.416499,0.22165 -0.880483,0.4895 -1.329346,0.64336 -1.147974,0.39349 -2.408285,0.48706 -3.607805,0.54767 -2.514603,-0.11871 -5.034763,-0.53235 -7.395463,-1.43076 -1.78045,-0.90264 -2.88863,-1.79753 -3.60964,-3.71548 -0.56315,-1.78685 -0.62961,-3.63499 -0.36696,-5.48806 0.27286,-2.05466 0.62231,-4.16021 1.72573,-5.9542 0.51022,-0.68181 1.01482,-1.33479 1.66753,-1.89045 1.03922,-0.8847 2.49246,-1.59279 -1.80762,0.85593 -0.29027,0.16529 0.5877,-0.31767 0.88156,-0.4765 1.5531,-0.68968 3.19683,-1.08176 4.90845,-0.99146 0,0 3.203772,-2.32768 3.203772,-2.32768 z" />
    <path
       style="fill:#00ff00;stroke-width:0.264583"
       id="path406"
       d="m -187.36054,194.63819 c 0.97051,3.58167 1.97038,7.14202 3.20244,10.64476 1.93591,4.74534 4.57841,9.21128 7.81694,13.18688 0.68875,0.84551 1.4309,1.64608 2.14635,2.46913 4.6663,4.76839 10.22518,8.47676 15.88549,11.94356 4.2167,2.49301 8.72499,4.49647 13.39904,5.96504 1.13075,0.35528 2.27592,0.66285 3.41389,0.99428 7.22041,1.83267 14.65539,3.04974 22.11059,3.31516 1.58477,0.0564 3.1715,0.0197 4.75725,0.0296 6.41533,-0.1989 12.82231,-0.86614 19.082784,-2.3138 1.383903,-0.32001 2.766288,-0.65766 4.120377,-1.08664 1.251231,-0.3964 2.456969,-0.9242 3.68545,-1.3863 6.282275,-2.84295 12.172823,-6.67163 16.853466,-11.77713 0.737479,-0.80442 1.401411,-1.6733 2.102115,-2.50994 3.427616,-4.31559 5.844222,-9.28143 8.110024,-14.27123 1.097105,-2.17969 1.770354,-4.52302 2.596946,-6.8075 0,0 -3.524355,1.6487 -3.524355,1.6487 v 0 c -0.768634,2.27113 -1.469864,4.56767 -2.516524,6.73381 -2.213912,4.95945 -4.610634,9.87628 -8.043651,14.12826 -0.707718,0.82782 -1.380865,1.6865 -2.123154,2.48347 -1.297765,1.39336 -3.240167,3.15887 -4.713787,4.35351 -0.872919,0.70767 -1.81985,1.32127 -2.68649,2.03661 -0.03655,0.0302 0.109101,0.10243 0.06751,0.12516 -1.074383,0.58711 -2.192615,1.09017 -3.288924,1.63525 -1.229609,0.47865 -2.434831,1.0254 -3.688823,1.43594 -1.358342,0.44469 -2.747053,0.79446 -4.137309,1.12618 -6.243142,1.48964 -12.641595,2.16501 -19.048105,2.37873 -1.58144,-0.004 -3.16374,0.0392 -4.74433,-0.013 -7.41008,-0.24464 -14.80022,-1.44816 -21.96417,-3.31986 -5.81699,-1.7517 -11.49926,-3.73639 -16.72568,-6.90276 -5.63892,-3.43554 -11.21293,-7.07336 -15.83725,-11.84048 -0.70926,-0.81752 -1.44496,-1.61284 -2.12779,-2.45257 -3.21309,-3.95135 -5.84545,-8.37302 -7.70147,-13.11729 -0.66036,-1.94265 -0.93328,-2.65507 -1.47689,-4.58984 -0.57091,-2.03191 -0.99149,-4.10232 -1.54663,-6.13821 0,0 -3.45533,1.89254 -3.45533,1.89254 z" />
  </g>
</svg>
