<?xml version="1.0" encoding="UTF-8" standalone="no"?>
<!-- Created with Inkscape (http://www.inkscape.org/) -->

<svg
   width="210mm"
   height="297mm"
   viewBox="0 0 210 297"
   version="1.1"
   id="svg2139"
   inkscape:version="1.1.1 (3bf5ae0d25, 2021-09-20)"
   sodipodi:docname="Shedevr.svg"
   xmlns:inkscape="http://www.inkscape.org/namespaces/inkscape"
   xmlns:sodipodi="http://sodipodi.sourceforge.net/DTD/sodipodi-0.dtd"
   xmlns="http://www.w3.org/2000/svg"
   xmlns:svg="http://www.w3.org/2000/svg">
  <sodipodi:namedview
     id="namedview2141"
     pagecolor="#ffffff"
     bordercolor="#666666"
     borderopacity="1.0"
     inkscape:pageshadow="2"
     inkscape:pageopacity="0.0"
     inkscape:pagecheckerboard="0"
     inkscape:document-units="mm"
     showgrid="false"
     inkscape:zoom="0.72337262"
     inkscape:cx="397.44385"
     inkscape:cy="559.18622"
     inkscape:window-width="1920"
     inkscape:window-height="1001"
     inkscape:window-x="-9"
     inkscape:window-y="-9"
     inkscape:window-maximized="1"
     inkscape:current-layer="layer1" />
  <defs
     id="defs2136" />
  <g
     inkscape:label="Слой 1"
     inkscape:groupmode="layer"
     id="layer1">
    <rect
       style="fill:#ff0000;stroke-width:0.264583"
       id="rect2165"
       width="51.206894"
       height="70.592361"
       x="20.848522"
       y="19.019705" />
    <rect
       style="fill:#ffff00;stroke-width:0.264583"
       id="rect2189"
       width="63.277092"
       height="73.518471"
       x="49.743843"
       y="136.42979" />
    <rect
       style="fill:#0000ff;stroke-width:0.264583"
       id="rect2213"
       width="67.666252"
       height="58.522167"
       x="114.84975"
       y="67.666252" />
    <rect
       style="fill:#ff00ff;stroke-width:0.264583"
       id="rect2281"
       width="79.004921"
       height="76.810349"
       x="106.80295"
       y="175.93227" />
    <rect
       style="fill:#00ffff;stroke-width:0.264583"
       id="rect2305"
       width="48.280788"
       height="47.549263"
       x="25.603447"
       y="111.19212" />
    <rect
       style="fill:#a02c2c;stroke-width:0.264583"
       id="rect2329"
       width="58.887932"
       height="58.156403"
       x="81.565269"
       y="32.91872" />
    <rect
       style="fill:#800080;stroke-width:0.264583"
       id="rect2353"
       width="51.938423"
       height="39.50246"
       x="98.390388"
       y="114.48399" />
    <rect
       style="fill:#00ff00;stroke-width:0.264583"
       id="rect2399"
       width="58.887932"
       height="70.95813"
       x="27.432266"
       y="194.5862" />
    <rect
       style="fill:#ffcc00;stroke-width:0.264583"
       id="rect2423"
       width="32.91872"
       height="57.424877"
       x="168.25122"
       y="30.358374" />
    <path
       sodipodi:type="spiral"
       style="fill:none;fill-rule:evenodd;stroke:#000000"
       id="path2472"
       sodipodi:cx="378.78128"
       sodipodi:cy="503.19849"
       sodipodi:expansion="1"
       sodipodi:revolution="3"
       sodipodi:radius="424.76324"
       sodipodi:argument="-17.755507"
       sodipodi:t0="0"
       d="m 378.78128,503.19849 c 9.77299,18.92218 -20.68508,22.50932 -31.44991,16.24334 -29.17204,-16.98042 -21.39752,-58.80205 -1.03678,-79.14316 36.42058,-36.38548 96.55116,-22.83632 126.83642,14.16978 44.44484,54.30794 24.49124,134.87505 -29.37635,174.52968 -71.79702,52.85338 -173.41119,26.24864 -222.22293,-44.58292 -61.4246,-89.13428 -28.06118,-212.0505 59.78948,-269.91619 106.39892,-70.0831 250.74832,-29.90603 317.60945,74.99605 78.79352,123.62347 31.77123,289.48267 -90.20262,365.3027 C 367.90441,842.33499 180.48662,788.44778 95.732085,649.3886 -0.57140189,491.38071 60.193825,282.37131 216.34783,188.69938 391.52902,83.613631 622.15344,151.266 724.7303,324.52169 838.61005,516.86833 764.06392,769.125 573.70143,880.59741"
       transform="scale(0.26458333)" />
    <path
       sodipodi:type="spiral"
       style="fill:none;fill-rule:evenodd;stroke:#000000"
       id="path5281"
       sodipodi:cx="161.74237"
       sodipodi:cy="190.77306"
       sodipodi:expansion="1"
       sodipodi:revolution="3"
       sodipodi:radius="92.218475"
       sodipodi:argument="-17.979256"
       sodipodi:t0="0"
       d="m 161.74237,190.77306 c 2.98042,3.53491 -3.29456,5.76154 -5.87526,4.95364 -6.99353,-2.18934 -7.36238,-11.41724 -4.03203,-16.70416 5.95721,-9.45706 19.33918,-9.48545 27.53307,-3.11042 12.02486,9.35561 11.68195,27.37238 2.18881,38.36197 -12.65288,14.6474 -35.44558,13.91039 -49.19088,1.2672 -17.29706,-15.91017 -16.15546,-43.53796 -0.34559,-60.01978 19.14788,-19.9617 51.64118,-18.41019 70.84869,0.57602 22.63539,22.3746 20.67098,59.75114 -1.49764,81.67759 -25.59455,25.31496 -67.86561,22.93583 -92.50649,-2.41925 -27.998538,-28.81005 -25.20351,-75.98325 3.34086,-103.3354 32.02246,-30.68497 84.1032,-27.47323 114.1643,4.26248 33.37352,35.23265 29.7445,92.22489 -5.18408,124.99321"
       transform="scale(0.26458333)" />
    <path
       sodipodi:type="spiral"
       style="fill:none;fill-rule:evenodd;stroke:#000000"
       id="path5291"
       sodipodi:cx="188.00822"
       sodipodi:cy="515.6402"
       sodipodi:expansion="1"
       sodipodi:revolution="3"
       sodipodi:radius="90.91407"
       sodipodi:argument="-18.074909"
       sodipodi:t0="0"
       d="m 188.00822,515.6402 c 3.25767,3.18835 -2.69062,5.96428 -5.29925,5.41445 -7.06924,-1.49003 -8.30008,-10.51108 -5.52964,-16.01297 4.95565,-9.84158 18.08535,-11.12945 26.72667,-5.64483 12.68147,8.04889 14.04137,25.76191 5.76002,37.44038 -11.03773,15.56555 -33.47471,16.98838 -48.15408,5.87522 -18.47249,-13.98479 -19.95353,-41.20478 -5.99041,-58.8678 16.91121,-21.39228 48.94455,-22.92917 69.58149,-6.1056 24.31993,19.826 25.91142,56.69039 6.2208,80.29521 -22.7336,27.25269 -64.44026,28.89805 -91.00891,6.33598 -30.18899,-25.63645 -31.88777,-72.19298 -6.45118,-101.72261 28.536,-33.12779 79.94777,-34.87971 112.43632,-6.56638 36.06845,31.43317 37.87333,87.70413 6.68157,123.15003"
       transform="scale(0.26458333)" />
    <path
       sodipodi:type="spiral"
       style="fill:none;fill-rule:evenodd;stroke:#000000"
       id="path5297"
       sodipodi:cx="413.34161"
       sodipodi:cy="230.86304"
       sodipodi:expansion="1"
       sodipodi:revolution="3"
       sodipodi:radius="108.71959"
       sodipodi:argument="-18.001179"
       sodipodi:t0="0"
       d="m 413.34161,230.86304 c 3.60423,4.0894 -3.73424,6.87599 -6.79686,5.99046 -8.29952,-2.39974 -8.97275,-13.26668 -5.18406,-19.58419 6.77707,-11.30053 22.54901,-11.67984 32.37151,-4.37766 14.41491,10.71624 14.47637,31.9606 3.57126,45.15884 -14.53478,17.59117 -41.41849,17.31155 -57.94616,2.76486 -20.79838,-18.30552 -20.16684,-50.89857 -1.95846,-70.73349 22.05279,-24.02273 60.39117,-23.0338 83.52081,-1.15206 27.25749,25.78687 25.90809,69.89156 0.34567,96.30814 -29.51283,30.49897 -79.39718,28.78726 -109.09547,-0.46074 -33.74508,-33.23343 -31.66985,-88.90644 1.26714,-121.88279 36.95032,-36.99447 98.41837,-34.55492 134.67011,2.07354 40.2463,40.66452 37.44185,107.93232 -2.87993,147.45743"
       transform="scale(0.26458333)" />
    <path
       sodipodi:type="spiral"
       style="fill:none;fill-rule:evenodd;stroke:#000000"
       id="path5299"
       sodipodi:cx="546.05328"
       sodipodi:cy="799.03497"
       sodipodi:expansion="1"
       sodipodi:revolution="3"
       sodipodi:radius="142.30803"
       sodipodi:argument="-18.153574"
       sodipodi:t0="0"
       d="m 546.05328,799.03497 c 5.47565,4.5746 -3.46496,9.63801 -7.60327,9.10089 -11.21455,-1.45556 -14.24489,-15.38116 -10.5985,-24.30743 6.52252,-15.967 26.8525,-19.59171 41.01159,-12.09612 20.77903,11.00008 25.07993,38.47329 13.59374,57.71575 -15.30928,25.64718 -50.14632,30.62736 -74.41992,15.09136 -30.54585,-19.55047 -36.20521,-61.84405 -16.58897,-91.12408 23.75789,-35.46205 73.55565,-41.80065 107.82824,-18.08659 40.38907,27.94619 47.40711,85.27589 19.58421,124.5324 -32.12264,45.3232 -97.00191,53.02093 -141.23657,21.08183 -50.26223,-36.29125 -58.6399,-108.73198 -22.57944,-157.94073 40.45439,-55.20479 120.465,-64.26262 174.64489,-24.07706 60.14995,44.61359 69.88813,132.20026 25.57467,191.34905"
       transform="scale(0.26458333)" />
    <path
       sodipodi:type="spiral"
       style="fill:none;fill-rule:evenodd;stroke:#000000"
       id="path5301"
       sodipodi:cx="203.21477"
       sodipodi:cy="864.00836"
       sodipodi:expansion="1"
       sodipodi:revolution="3"
       sodipodi:radius="106.45481"
       sodipodi:argument="-18.193069"
       sodipodi:t0="0"
       d="m 203.21477,864.00836 c 4.22803,3.25766 -2.3053,7.30652 -5.41445,7.02728 -8.4256,-0.75675 -11.10203,-11.0763 -8.6401,-17.85617 4.40381,-12.1276 19.49291,-15.43748 30.29789,-10.25293 15.85673,7.60854 19.88303,28.01706 11.86575,42.73961 -10.68577,19.62283 -36.57851,24.37439 -55.18132,13.47858 -23.40975,-13.71126 -28.88922,-45.15752 -15.09141,-67.62304 16.71099,-27.20876 53.74638,-33.4176 80.06476,-16.70424 31.0153,19.69612 37.95448,62.34138 18.31706,92.50648 -22.67217,34.8268 -70.94047,42.49703 -104.9482,19.92989 -38.64174,-25.64221 -47.04354,-79.54244 -21.54272,-117.38992 28.60808,-42.45915 88.14652,-51.59295 129.83164,-23.15554 46.27839,31.5709 56.14451,96.75217 24.76838,142.27336"
       transform="scale(0.26458333)" />
    <path
       sodipodi:type="star"
       style="fill:#008000"
       id="path5859"
       inkscape:flatsided="false"
       sodipodi:sides="5"
       sodipodi:cx="562.64227"
       sodipodi:cy="98.151352"
       sodipodi:r1="66.585846"
       sodipodi:r2="33.292923"
       sodipodi:arg1="0.72664234"
       sodipodi:arg2="1.3549609"
       inkscape:rounded="0"
       inkscape:randomized="0"
       d="m 612.40915,142.38858 -42.63675,-11.71677 -33.82342,28.48071 -2.03217,-44.17064 -37.53878,-23.366958 41.3808,-15.582185 10.62318,-42.922294 27.60691,34.540323 44.10427,-3.160476 -24.3188,36.92928 z"
       transform="scale(0.26458333)"
       inkscape:transform-center-x="1.1659316"
       inkscape:transform-center-y="-0.53442375" />
    <path
       sodipodi:type="star"
       style="fill:#008000"
       id="path6015"
       inkscape:flatsided="false"
       sodipodi:sides="5"
       sodipodi:cx="671.85291"
       sodipodi:cy="546.05328"
       sodipodi:r1="57.747829"
       sodipodi:r2="28.873915"
       sodipodi:arg1="0.73459446"
       sodipodi:arg2="1.362913"
       inkscape:rounded="0"
       inkscape:randomized="0"
       d="m 714.70772,584.76086 -36.89555,-10.45532 -29.52949,24.4664 -1.45775,-38.32063 -32.39404,-20.52368 35.99461,-13.22813 9.50887,-37.15073 23.70365,30.14519 38.27084,-2.43673 -21.34495,31.85888 z"
       transform="scale(0.26458333)"
       inkscape:transform-center-x="0.97447031"
       inkscape:transform-center-y="-0.50084016" />
    <path
       sodipodi:type="star"
       style="fill:#008000"
       id="path6017"
       inkscape:flatsided="false"
       sodipodi:sides="5"
       sodipodi:cx="272.33545"
       sodipodi:cy="338.69128"
       sodipodi:r1="58.07782"
       sodipodi:r2="29.03891"
       sodipodi:arg1="0.90349029"
       sodipodi:arg2="1.5318088"
       inkscape:rounded="0"
       inkscape:randomized="0"
       d="m 308.27819,384.31093 -34.81087,-16.6028 -33.41181,19.26398 5.03305,-38.23766 -28.64596,-25.82362 37.92148,-7.02937 15.70763,-35.22386 18.40371,33.89327 38.35381,4.05408 -26.54736,27.97656 z"
       transform="scale(0.26458333)"
       inkscape:transform-center-x="0.18508565"
       inkscape:transform-center-y="-1.2902228" />
    <path
       sodipodi:type="star"
       style="fill:#008000"
       id="path6019"
       inkscape:flatsided="false"
       sodipodi:sides="5"
       sodipodi:cx="400.8999"
       sodipodi:cy="982.89594"
       sodipodi:r1="48.699425"
       sodipodi:r2="24.349712"
       sodipodi:arg1="0.60374933"
       sodipodi:arg2="1.2320679"
       inkscape:rounded="0"
       inkscape:randomized="0"
       d="m 440.98989,1010.5442 -31.99887,-4.6822 -21.9977,23.7056 -5.4352,-31.87964 -29.34294,-13.59564 28.63973,-15.02052 3.86275,-32.10809 23.13553,22.59641 31.73027,-6.24825 -14.34119,28.98587 z"
       transform="scale(0.26458333)"
       inkscape:transform-center-x="1.1370135"
       inkscape:transform-center-y="0.097814085" />
    <path
       sodipodi:type="star"
       style="fill:#008000"
       id="path6021"
       inkscape:flatsided="false"
       sodipodi:sides="5"
       sodipodi:cx="565.4071"
       sodipodi:cy="1016.0739"
       sodipodi:r1="47.668213"
       sodipodi:r2="23.834106"
       sodipodi:arg1="0.29423457"
       sodipodi:arg2="0.9225531"
       inkscape:rounded="0"
       inkscape:randomized="0"
       d="m 611.02675,1029.898 -31.22892,5.1752 -13.44101,28.6595 -14.5721,-28.1013 -31.4103,-3.9269 22.22286,-22.5427 -5.97162,-31.0864 28.30659,14.16914 27.71963,-15.28559 -4.72843,31.29965 z"
       transform="scale(0.26458333)"
       inkscape:transform-center-x="-0.077647276"
       inkscape:transform-center-y="1.1302681" />
    <path
       sodipodi:type="star"
       style="fill:#008000"
       id="path6023"
       inkscape:flatsided="false"
       sodipodi:sides="5"
       sodipodi:cx="717.47253"
       sodipodi:cy="982.89594"
       sodipodi:r1="67.498024"
       sodipodi:r2="33.749012"
       sodipodi:arg1="0.96007036"
       sodipodi:arg2="1.5883889"
       inkscape:rounded="0"
       inkscape:randomized="0"
       d="m 756.18011,1038.1925 -39.30128,-21.5528 -40.03513,20.1569 8.35312,-44.0379 -31.54186,-31.84686 44.46379,-5.66417 20.54119,-39.83931 19.12701,40.53724 44.23701,7.22481 -32.64264,30.71757 z"
       transform="scale(0.26458333)"
       inkscape:transform-center-x="-0.097080499"
       inkscape:transform-center-y="-1.6127767" />
    <path
       sodipodi:type="star"
       style="fill:#008000"
       id="path6025"
       inkscape:flatsided="false"
       sodipodi:sides="5"
       sodipodi:cx="71.885498"
       sodipodi:cy="699.50116"
       sodipodi:r1="47.987843"
       sodipodi:r2="23.993919"
       sodipodi:arg1="0.84654579"
       sodipodi:arg2="1.4748643"
       inkscape:rounded="0"
       inkscape:randomized="0"
       d="m 103.68101,735.44387 -29.497256,-12.05911 -26.656453,17.46264 2.353747,-31.78003 -24.845254,-19.95554 30.95195,-7.58202 11.301242,-29.79585 16.775609,27.09408 31.829805,1.5407 -20.584052,24.32709 z"
       transform="scale(0.26458333)"
       inkscape:transform-center-x="0.37581448"
       inkscape:transform-center-y="-0.8494419" />
    <path
       sodipodi:type="star"
       style="fill:#008000"
       id="path6027"
       inkscape:flatsided="false"
       sodipodi:sides="5"
       sodipodi:cx="62.208603"
       sodipodi:cy="1013.309"
       sodipodi:r1="53.98497"
       sodipodi:r2="26.992485"
       sodipodi:arg1="0.87605805"
       sodipodi:arg2="1.5043766"
       inkscape:rounded="0"
       inkscape:randomized="0"
       d="m 96.768939,1054.7814 -32.768821,-14.5394 -30.554383,18.7515 3.701703,-35.6579 -27.2756007,-23.2644 35.0565977,-7.49838 13.697136,-33.12973 17.964466,31.02368 35.740893,2.7891 -23.953944,26.67203 z"
       transform="scale(0.26458333)"
       inkscape:transform-center-x="0.29295158"
       inkscape:transform-center-y="-1.0823376" />
    <path
       sodipodi:type="star"
       style="fill:#008000"
       id="path6029"
       inkscape:flatsided="false"
       sodipodi:sides="5"
       sodipodi:cx="344.22095"
       sodipodi:cy="64.973427"
       sodipodi:r1="52.038273"
       sodipodi:r2="26.019136"
       sodipodi:arg1="0.8794594"
       sodipodi:arg2="1.5077779"
       inkscape:rounded="0"
       inkscape:randomized="0"
       d="m 377.39887,105.06342 -31.53932,-14.122505 -29.51391,17.975075 3.68511,-34.359767 -26.21561,-22.514786 33.81685,-7.113005 13.31176,-31.889982 17.21485,29.963693 34.44274,2.805693 -23.17749,25.631585 z"
       transform="scale(0.26458333)"
       inkscape:transform-center-x="0.26794733"
       inkscape:transform-center-y="-1.0573293" />
  </g>
</svg>
